<!-- Generated by IcoMoon.io -->
<svg version="1.1" xmlns="http://www.w3.org/2000/svg" width="32" height="32" viewBox="0 0 32 32">
<title>check_0</title>
<path d="M26.106 5.878c-0.919-0.922-2.028-1.378-3.322-1.378h-13.588c-1.297 0-2.4 0.456-3.319 1.378-0.919 0.919-1.378 2.025-1.378 3.319v13.588c0 1.297 0.456 2.409 1.378 3.331 0.919 0.919 2.025 1.387 3.319 1.387h13.588c1.297 0 2.409-0.466 3.331-1.387 0.919-0.919 1.387-2.034 1.387-3.331v-13.588c0-1.297-0.466-2.403-1.387-3.322l-0.009 0.003zM25.406 22.784c0 0.719-0.259 1.337-0.772 1.85s-1.131 0.772-1.85 0.772h-13.588c-0.719 0-1.328-0.259-1.841-0.772s-0.763-1.131-0.763-1.85v-13.588c0-0.719 0.25-1.328 0.763-1.841s1.122-0.763 1.841-0.763h13.588c0.719 0 1.337 0.25 1.85 0.763s0.772 1.122 0.772 1.841v13.588z"></path>
</svg>
