<!-- Generated by IcoMoon.io -->
<svg version="1.1" xmlns="http://www.w3.org/2000/svg" width="1024" height="1024" viewBox="0 0 1024 1024">
<title></title>
<g id="icomoon-ignore">
</g>
<path fill="#000" d="M769.104 188.291c-29.44-29.44-64.89-44.16-106.343-44.16h-434.776c-41.454 0-76.903 14.72-106.343 44.16-29.434 29.44-44.154 64.884-44.154 106.343v434.776c0 41.454 14.72 76.897 44.154 106.343 29.44 29.44 64.89 44.16 106.343 44.16h434.776c41.454 0 76.896-14.72 106.343-44.16 29.44-29.446 44.16-64.89 44.16-106.343v-434.776c-0.007-41.454-14.727-76.903-44.16-106.343zM746.366 729.411c0 22.988-8.178 42.672-24.552 59.053-16.375 16.375-36.053 24.553-59.053 24.553h-434.776c-22.994 0-42.678-8.178-59.053-24.553-16.375-16.381-24.56-36.065-24.56-59.053v-434.776c0-22.994 8.185-42.678 24.56-59.053s36.059-24.56 59.053-24.56h434.776c23 0 42.678 8.185 59.053 24.56s24.552 36.059 24.552 59.053v434.776z"></path>
<path fill="#000" d="M670.496 290.923c-18.449-18.453-40.673-27.681-66.661-27.681h-314.509c-25.988 0-48.213 9.228-66.669 27.681-18.453 18.457-27.681 40.681-27.681 66.669v314.505c0 25.988 9.228 48.213 27.681 66.669 18.457 18.457 40.681 27.685 66.669 27.685h314.504c25.988 0 48.213-9.228 66.661-27.685 18.457-18.457 27.685-40.681 27.685-66.669v-314.505c0-25.988-9.228-48.217-27.681-66.669z"></path>
</svg>
