<!-- Generated by IcoMoon.io -->
<svg version="1.1" xmlns="http://www.w3.org/2000/svg" width="32" height="32" viewBox="0 0 32 32">
<title>check_1</title>
<path d="M27.159 17.125c-0.066-0.031-0.131-0.050-0.197-0.050-0.141 0-0.266 0.053-0.375 0.163l-1.044 1.044c-0.097 0.097-0.147 0.219-0.147 0.359v4.147c0 0.719-0.256 1.334-0.769 1.847-0.512 0.516-1.128 0.772-1.847 0.772h-13.584c-0.719 0-1.334-0.256-1.847-0.769s-0.769-1.128-0.769-1.847v-13.584c0-0.719 0.256-1.334 0.769-1.847s1.128-0.766 1.847-0.766h13.584c0.241 0 0.484 0.031 0.734 0.097 0.066 0.022 0.116 0.031 0.147 0.031 0.141 0 0.266-0.053 0.375-0.162l0.8-0.8c0.131-0.131 0.178-0.287 0.147-0.472-0.031-0.175-0.131-0.3-0.294-0.375-0.584-0.272-1.222-0.409-1.909-0.409h-13.584c-1.297 0-2.403 0.459-3.322 1.381-0.919 0.919-1.381 2.028-1.381 3.322v13.587c0 1.297 0.459 2.403 1.381 3.322 0.919 0.919 2.028 1.381 3.322 1.381h13.584c1.297 0 2.403-0.459 3.322-1.381 0.919-0.919 1.381-2.028 1.381-3.322v-5.194c0.003-0.228-0.106-0.387-0.325-0.475v0z"></path>
<path d="M31.259 7.753l-1.797-1.797c-0.262-0.263-0.572-0.391-0.931-0.391s-0.669 0.131-0.931 0.391l-10.566 10.566-4.294-4.294c-0.262-0.262-0.572-0.391-0.931-0.391s-0.669 0.131-0.931 0.391l-1.797 1.797c-0.262 0.262-0.391 0.572-0.391 0.931s0.131 0.669 0.391 0.931l7.022 7.019c0.262 0.262 0.572 0.391 0.931 0.391s0.669-0.131 0.931-0.391l13.294-13.294c0.262-0.262 0.391-0.572 0.391-0.931s-0.131-0.666-0.391-0.928v0z"></path>
</svg>
