<!-- Generated by IcoMoon.io -->
<svg version="1.1" xmlns="http://www.w3.org/2000/svg" width="1024" height="1024" viewBox="0 0 1024 1024">
<title></title>
<g id="icomoon-ignore">
</g>
<path fill="#000" d="M802.826 548.050c-2.091-1.046-4.182-1.571-6.279-1.571-4.535 0-8.53 1.738-12.013 5.227l-33.449 33.442c-3.13 3.136-4.701 6.966-4.701 11.494v132.724c0 23-8.171 42.678-24.553 59.053-16.375 16.375-36.059 24.559-59.053 24.559h-434.776c-22.994 0-42.678-8.184-59.053-24.559s-24.559-36.053-24.559-59.053v-434.763c0-22.994 8.184-42.678 24.559-59.053s36.059-24.559 59.053-24.559h434.782c7.665 0 15.503 1.046 23.513 3.136 2.091 0.693 3.656 1.046 4.695 1.046 4.535 0 8.543-1.738 12.026-5.221l25.604-25.605c4.175-4.175 5.747-9.23 4.695-15.15-1.046-5.574-4.182-9.582-9.409-12.020-18.806-8.697-39.189-13.065-61.138-13.065h-434.769c-41.453 0-76.903 14.72-106.343 44.16-29.434 29.44-44.154 64.884-44.154 106.343v434.776c0 41.453 14.72 76.897 44.154 106.337 29.44 29.446 64.89 44.166 106.343 44.166h434.776c41.453 0 76.903-14.72 106.343-44.166 29.44-29.44 44.166-64.884 44.166-106.337v-166.185c0-7.312-3.496-12.36-10.461-15.156z"></path>
<path fill="#000" d="M933.997 248.102l-57.488-57.488c-8.357-8.357-18.293-12.539-29.793-12.539-11.487 0-21.429 4.182-29.786 12.539l-338.105 338.105-137.425-137.438c-8.364-8.364-18.293-12.539-29.786-12.539s-21.422 4.175-29.786 12.539l-57.482 57.482c-8.364 8.364-12.546 18.293-12.546 29.793 0 11.494 4.182 21.423 12.546 29.786l224.7 224.7c8.364 8.37 18.293 12.546 29.786 12.546s21.423-4.175 29.786-12.546l425.373-425.367c8.357-8.357 12.546-18.293 12.546-29.786s-4.182-21.429-12.539-29.786z"></path>
</svg>
