<!-- Generated by IcoMoon.io -->
<svg version="1.1" xmlns="http://www.w3.org/2000/svg" width="1024" height="1024" viewBox="0 0 1024 1024">
<title></title>
<g id="icomoon-ignore">
</g>
<path fill="#000" d="M769.104 188.291c-29.44-29.44-64.89-44.16-106.343-44.16h-434.776c-41.453 0-76.903 14.72-106.343 44.16-29.434 29.44-44.154 64.884-44.154 106.343v434.776c0 41.453 14.72 76.897 44.154 106.343 29.44 29.44 64.89 44.16 106.343 44.16h434.776c41.453 0 76.897-14.72 106.343-44.16 29.44-29.446 44.16-64.89 44.16-106.343v-434.776c-0.007-41.453-14.727-76.903-44.16-106.343zM746.366 729.41c0 22.988-8.178 42.672-24.553 59.053-16.375 16.375-36.053 24.553-59.053 24.553h-434.776c-22.994 0-42.678-8.178-59.053-24.553-16.375-16.381-24.559-36.066-24.559-59.053v-434.776c0-22.994 8.184-42.678 24.559-59.053s36.059-24.559 59.053-24.559h434.776c23 0 42.678 8.184 59.053 24.559s24.553 36.059 24.553 59.053v434.776z"></path>
</svg>
