<!-- Generated by IcoMoon.io -->
<svg version="1.1" xmlns="http://www.w3.org/2000/svg" width="32" height="32" viewBox="0 0 32 32">
<title>check_2</title>
<path d="M26.116 5.884c-0.919-0.919-2.028-1.381-3.322-1.381h-13.588c-1.297 0-2.403 0.459-3.322 1.381-0.919 0.919-1.381 2.028-1.381 3.322v13.588c0 1.297 0.459 2.403 1.381 3.322 0.919 0.919 2.028 1.381 3.322 1.381h13.588c1.297 0 2.403-0.459 3.322-1.381 0.919-0.919 1.381-2.028 1.381-3.322v-13.588c0-1.294-0.459-2.403-1.381-3.322v0zM25.406 22.794c0 0.719-0.256 1.334-0.769 1.847s-1.128 0.769-1.847 0.769h-13.584c-0.719 0-1.334-0.256-1.847-0.769s-0.769-1.128-0.769-1.847v-13.588c0-0.719 0.256-1.334 0.769-1.847s1.128-0.766 1.847-0.766h13.588c0.719 0 1.334 0.256 1.847 0.769s0.769 1.128 0.769 1.847v13.584z"></path>
<path d="M22.997 9.003c-0.575-0.578-1.272-0.866-2.084-0.866h-9.825c-0.813 0-1.506 0.287-2.084 0.866s-0.866 1.272-0.866 2.084v9.828c0 0.813 0.287 1.506 0.866 2.084s1.272 0.866 2.084 0.866h9.828c0.813 0 1.506-0.288 2.084-0.866s0.866-1.272 0.866-2.084v-9.831c-0.003-0.809-0.291-1.506-0.869-2.081v0z"></path>
</svg>
