<!-- Generated by IcoMoon.io -->
<svg version="1.1" xmlns="http://www.w3.org/2000/svg" width="32" height="32" viewBox="0 0 32 32">
<title>flickr_1154647_easyicon.net</title>
<path d="M24.25 7.75c-0.68-0.68-1.499-1.020-2.456-1.020h-11.587c-0.957 0-1.776 0.34-2.456 1.020s-1.020 1.499-1.020 2.456v11.587c0 0.957 0.34 1.776 1.020 2.456s1.499 1.020 2.456 1.020h11.587c0.957 0 1.776-0.34 2.456-1.020s1.020-1.499 1.020-2.456v-11.587c0-0.957-0.34-1.776-1.020-2.456zM14.407 17.811c-0.499 0.499-1.102 0.749-1.811 0.749s-1.312-0.25-1.811-0.749c-0.499-0.499-0.748-1.102-0.748-1.811s0.249-1.312 0.748-1.811c0.499-0.499 1.102-0.748 1.811-0.748s1.312 0.249 1.811 0.748c0.499 0.499 0.748 1.102 0.748 1.811s-0.249 1.312-0.748 1.811zM21.214 17.811c-0.499 0.499-1.102 0.749-1.811 0.749s-1.312-0.25-1.811-0.749c-0.499-0.499-0.748-1.102-0.748-1.811s0.25-1.312 0.748-1.811c0.499-0.499 1.103-0.748 1.811-0.748s1.312 0.249 1.811 0.748c0.499 0.499 0.749 1.102 0.749 1.811s-0.25 1.312-0.749 1.811z"></path>
</svg>
