<!-- Generated by IcoMoon.io -->
<svg version="1.1" xmlns="http://www.w3.org/2000/svg" width="32" height="32" viewBox="0 0 32 32">
<title>magnifier_1149256_easyicon.net</title>
<path d="M30.828 25.172l-6.26-6.262c0.908-1.774 1.432-3.779 1.432-5.91 0-7.18-5.82-13-13-13-7.181 0-13 5.82-13 13s5.819 13 13 13c2.122 0 4.119-0.52 5.889-1.42-0.002 0-0.006 0.002-0.008 0.004 0.010-0.006 0.021-0.010 0.033-0.016l6.258 6.26c1.564 1.563 4.098 1.563 5.656 0 1.563-1.561 1.563-4.094 0-5.656zM3 13c0-5.514 4.486-10 10-10s10 4.486 10 10-4.486 10-10 10-10-4.486-10-10zM28.707 27.291c-0.391 0.391-1.023 0.391-1.414 0l-2.828-2.828c-0.391-0.391-0.391-1.023 0-1.414s1.023-0.391 1.414 0l2.828 2.828c0.393 0.391 0.393 1.023 0 1.414z"></path>
</svg>
