<!-- Generated by IcoMoon.io -->
<svg version="1.1" xmlns="http://www.w3.org/2000/svg" width="32" height="32" viewBox="0 0 32 32">
<title>picture_1154746_easyicon.net</title>
<path d="M27.020 7.297c-0.378-0.378-0.833-0.567-1.364-0.567h-19.312c-0.531 0-0.986 0.189-1.364 0.567s-0.567 0.833-0.567 1.364v14.677c0 0.531 0.189 0.986 0.567 1.364s0.833 0.567 1.364 0.567h19.312c0.531 0 0.985-0.189 1.364-0.567s0.567-0.833 0.567-1.364v-14.677c0-0.531-0.189-0.986-0.568-1.364zM26.042 23.338c0 0.105-0.038 0.195-0.115 0.272s-0.167 0.114-0.272 0.114h-19.312c-0.105 0-0.195-0.038-0.272-0.114s-0.115-0.167-0.115-0.272v-14.677c0-0.105 0.038-0.195 0.115-0.272s0.167-0.115 0.272-0.115h19.312c0.104 0 0.195 0.038 0.271 0.115s0.115 0.167 0.115 0.272v14.677z"></path>
<path d="M9.82 14.455c0.644 0 1.191-0.225 1.642-0.676s0.676-0.998 0.676-1.641c0-0.644-0.225-1.191-0.676-1.642s-0.998-0.676-1.642-0.676c-0.644 0-1.191 0.225-1.641 0.676s-0.676 0.998-0.676 1.642c0 0.644 0.225 1.191 0.676 1.641s0.998 0.676 1.641 0.676z"></path>
<path d="M13.296 17.931l-1.931-1.931-3.862 3.862v2.317h16.995v-5.407l-5.021-5.021z"></path>
</svg>
