<!-- Generated by IcoMoon.io -->
<svg version="1.1" xmlns="http://www.w3.org/2000/svg" width="32" height="32" viewBox="0 0 32 32">
<title>puzzle_1154760_easyicon.net</title>
<path d="M25.493 18.040c-0.366-0.475-0.879-0.712-1.539-0.712-0.346 0-0.68 0.060-1.002 0.181s-0.582 0.256-0.779 0.404c-0.197 0.149-0.41 0.284-0.64 0.404s-0.433 0.181-0.609 0.181c-0.362 0-0.72-0.185-1.074-0.555-0.282-0.298-0.423-0.768-0.423-1.412 0-0.764 0.096-1.75 0.289-2.957 0.008-0.024 0.022-0.111 0.042-0.26s0.040-0.286 0.060-0.41c0.020-0.125 0.034-0.195 0.042-0.211v-0.024c-0.378 0.016-1.034 0.084-1.967 0.205s-1.657 0.181-2.173 0.181c-0.491 0-0.905-0.107-1.243-0.32s-0.507-0.549-0.507-1.008c0-0.298 0.071-0.583 0.211-0.857s0.294-0.501 0.459-0.682c0.165-0.181 0.318-0.419 0.459-0.712s0.211-0.605 0.211-0.935c0-0.636-0.217-1.133-0.652-1.491s-0.974-0.537-1.617-0.537c-0.684 0-1.263 0.183-1.738 0.549s-0.712 0.879-0.712 1.539c0 0.346 0.060 0.68 0.181 1.002s0.255 0.581 0.404 0.779 0.284 0.41 0.404 0.64c0.121 0.229 0.181 0.433 0.181 0.61 0 0.362-0.185 0.72-0.555 1.074-0.298 0.282-0.768 0.423-1.412 0.423-0.764 0-1.75-0.097-2.957-0.29-0.024-0.008-0.111-0.023-0.259-0.043s-0.286-0.040-0.41-0.060c-0.125-0.020-0.195-0.034-0.211-0.042v12.36c0 0.008 0.008 0.012 0.024 0.012 0.016 0.008 0.028 0.012 0.036 0.012l0.157 0.024c0.073 0.016 0.183 0.032 0.332 0.048s0.26 0.032 0.332 0.048c1.207 0.193 2.193 0.29 2.957 0.29 0.644 0 1.114-0.141 1.412-0.423 0.37-0.354 0.555-0.712 0.555-1.074 0-0.177-0.060-0.38-0.181-0.61s-0.256-0.442-0.404-0.64-0.284-0.457-0.404-0.779c-0.121-0.322-0.181-0.656-0.181-1.002 0-0.66 0.237-1.173 0.712-1.539s1.050-0.549 1.726-0.549c0.652 0 1.195 0.179 1.629 0.537s0.652 0.855 0.652 1.491c0 0.33-0.070 0.642-0.211 0.935s-0.294 0.531-0.459 0.712c-0.165 0.181-0.318 0.408-0.459 0.682s-0.211 0.559-0.211 0.857c0 0.459 0.169 0.795 0.507 1.008s0.752 0.32 1.243 0.32c0.37 0 0.764-0.020 1.183-0.060s0.883-0.095 1.394-0.163 0.903-0.115 1.177-0.139c0.089-0.008 0.221-0.012 0.398-0.012v-0.060c0.008-0.314-0.052-0.776-0.181-1.388s-0.193-1.074-0.193-1.388c0-0.998 0.443-1.497 1.328-1.497 0.298 0 0.583 0.071 0.857 0.211s0.501 0.294 0.682 0.459c0.181 0.165 0.419 0.318 0.713 0.459s0.605 0.211 0.935 0.211c0.636 0 1.133-0.217 1.491-0.652s0.537-0.978 0.537-1.629c0-0.676-0.183-1.251-0.549-1.726z"></path>
</svg>
